<svg xmlns="http://www.w3.org/2000/svg" xmlns:xlink="http://www.w3.org/1999/xlink" width="1920" zoomAndPan="magnify" viewBox="0 0 1440 809.999993" height="1080" preserveAspectRatio="xMidYMid meet" version="1.0"><defs><g/><clipPath id="6cb70302aa"><path d="M 275 281 L 504 281 L 504 481 L 275 481 Z M 275 281 " clip-rule="nonzero"/></clipPath><clipPath id="5b9e19d66e"><path d="M 329.746094 259.03125 L 535.640625 403.242188 L 481.414062 480.664062 L 275.519531 336.449219 Z M 329.746094 259.03125 " clip-rule="nonzero"/></clipPath><clipPath id="4695140d3b"><path d="M 362.128906 281.710938 L 503.257812 380.5625 L 481.414062 480.664062 L 275.519531 336.449219 Z M 362.128906 281.710938 " clip-rule="nonzero"/></clipPath><clipPath id="f1250748b3"><path d="M 239 350 L 472 350 L 472 553 L 239 553 Z M 239 350 " clip-rule="nonzero"/></clipPath><clipPath id="e043f261a2"><path d="M 416.472656 575.148438 L 207.203125 428.34375 L 261.933594 350.328125 L 471.203125 497.132812 Z M 416.472656 575.148438 " clip-rule="nonzero"/></clipPath><clipPath id="a91d60e6c7"><path d="M 384.105469 552.441406 L 239.570312 451.050781 L 261.933594 350.328125 L 471.203125 497.132812 Z M 384.105469 552.441406 " clip-rule="nonzero"/></clipPath><clipPath id="2e371ea41a"><path d="M 360 344 L 515 344 L 515 457 L 360 457 Z M 360 344 " clip-rule="nonzero"/></clipPath><clipPath id="0fd0ecfe7a"><path d="M 372.828125 334.964844 L 522.75 434.675781 L 502.167969 465.617188 L 352.25 365.90625 Z M 372.828125 334.964844 " clip-rule="nonzero"/></clipPath><clipPath id="a315d1266e"><path d="M 497.328125 417.769531 C 511.367188 427.105469 518.140625 441.601562 512.457031 450.144531 C 506.777344 458.691406 490.789062 458.046875 476.75 448.710938 L 377.667969 382.8125 C 363.628906 373.476562 356.855469 358.980469 362.539062 350.4375 C 368.21875 341.894531 384.207031 342.535156 398.246094 351.871094 Z M 497.328125 417.769531 " clip-rule="nonzero"/></clipPath><clipPath id="04cb6c84c9"><path d="M 220 365 L 387 365 L 387 491 L 220 491 Z M 220 365 " clip-rule="nonzero"/></clipPath><clipPath id="11b00aec34"><path d="M 233.558594 355.6875 L 394.78125 469.496094 L 373.351562 499.851562 L 212.128906 386.046875 Z M 233.558594 355.6875 " clip-rule="nonzero"/></clipPath><clipPath id="277823a44e"><path d="M 369.839844 451.890625 C 383.613281 461.613281 389.984375 476.289062 384.066406 484.675781 C 378.148438 493.058594 362.183594 491.972656 348.410156 482.246094 L 237.070312 403.652344 C 223.296875 393.929688 216.925781 379.25 222.84375 370.867188 C 228.761719 362.484375 244.726562 363.570312 258.5 373.292969 Z M 369.839844 451.890625 " clip-rule="nonzero"/></clipPath></defs><rect x="-144" width="1728" fill="#ffffff" y="-80.999999" height="971.999992" fill-opacity="1"/><rect x="-144" width="1728" fill="#ffffff" y="-80.999999" height="971.999992" fill-opacity="1"/><g clip-path="url(#6cb70302aa)"><g clip-path="url(#5b9e19d66e)"><g clip-path="url(#4695140d3b)"><path fill="#ffe639" d="M 329.746094 259.03125 L 535.640625 403.242188 L 481.414062 480.664062 L 275.519531 336.449219 Z M 329.746094 259.03125 " fill-opacity="1" fill-rule="nonzero"/></g></g></g><g clip-path="url(#f1250748b3)"><g clip-path="url(#e043f261a2)"><g clip-path="url(#a91d60e6c7)"><path fill="#004aad" d="M 416.472656 575.148438 L 207.203125 428.34375 L 261.933594 350.328125 L 471.203125 497.132812 Z M 416.472656 575.148438 " fill-opacity="1" fill-rule="nonzero"/></g></g></g><g clip-path="url(#2e371ea41a)"><g clip-path="url(#0fd0ecfe7a)"><g clip-path="url(#a315d1266e)"><path fill="#fefefe" d="M 372.828125 334.964844 L 522.75 434.675781 L 502.167969 465.617188 L 352.25 365.90625 Z M 372.828125 334.964844 " fill-opacity="1" fill-rule="nonzero"/></g></g></g><g clip-path="url(#04cb6c84c9)"><g clip-path="url(#11b00aec34)"><g clip-path="url(#277823a44e)"><path fill="#fefefe" d="M 233.558594 355.6875 L 394.78125 469.496094 L 373.351562 499.851562 L 212.128906 386.046875 Z M 233.558594 355.6875 " fill-opacity="1" fill-rule="nonzero"/></g></g></g><g fill="#353535" fill-opacity="1"><g transform="translate(503.071157, 496.907131)"><g><path d="M 28.65625 63.765625 C 21.25 63.765625 15.046875 63.210938 10.046875 62.109375 L 10.046875 41.859375 C 13.847656 42.460938 18.050781 42.765625 22.65625 42.765625 C 39.457031 42.765625 52.757812 30.410156 62.5625 5.703125 L 65.125 -0.75 L 0.75 -162.34375 L 29.5625 -162.34375 L 63.765625 -72.625 C 64.265625 -71.21875 64.863281 -69.539062 65.5625 -67.59375 C 66.269531 -65.644531 68.519531 -59.117188 72.3125 -48.015625 C 76.113281 -36.910156 78.164062 -30.707031 78.46875 -29.40625 L 88.96875 -58.96875 L 124.53125 -162.34375 L 153.046875 -162.34375 L 90.625 0 C 83.925781 17.300781 77.675781 30.175781 71.875 38.625 C 66.070312 47.082031 59.644531 53.382812 52.59375 57.53125 C 45.539062 61.6875 37.5625 63.765625 28.65625 63.765625 Z M 28.65625 63.765625 "/></g></g></g><g fill="#353535" fill-opacity="1"><g transform="translate(646.267482, 496.907131)"><g><path d="M 21.3125 0 L 21.3125 -124.53125 C 21.3125 -135.9375 21.007812 -148.539062 20.40625 -162.34375 L 45.90625 -162.34375 C 46.707031 -143.9375 47.109375 -132.882812 47.109375 -129.1875 L 47.71875 -129.1875 C 52.019531 -143.09375 56.96875 -152.59375 62.5625 -157.6875 C 68.164062 -162.789062 76.066406 -165.34375 86.265625 -165.34375 C 89.867188 -165.34375 93.519531 -164.84375 97.21875 -163.84375 L 97.21875 -139.09375 C 93.625 -140.09375 88.828125 -140.59375 82.828125 -140.59375 C 71.617188 -140.59375 63.0625 -135.765625 57.15625 -126.109375 C 51.257812 -116.453125 48.3125 -102.625 48.3125 -84.625 L 48.3125 0 Z M 21.3125 0 "/></g></g></g><g fill="#353535" fill-opacity="1"><g transform="translate(738.148988, 496.907131)"><g><path d="M 47.109375 -162.34375 L 47.109375 -59.421875 C 47.109375 -48.710938 48.160156 -40.40625 50.265625 -34.5 C 52.367188 -28.601562 55.71875 -24.351562 60.3125 -21.75 C 64.914062 -19.15625 71.671875 -17.859375 80.578125 -17.859375 C 93.578125 -17.859375 103.828125 -22.304688 111.328125 -31.203125 C 118.828125 -40.109375 122.578125 -52.460938 122.578125 -68.265625 L 122.578125 -162.34375 L 149.59375 -162.34375 L 149.59375 -34.65625 C 149.59375 -15.75 149.890625 -4.195312 150.484375 0 L 124.984375 0 C 124.878906 -0.5 124.773438 -1.847656 124.671875 -4.046875 C 124.578125 -6.253906 124.453125 -8.78125 124.296875 -11.625 C 124.148438 -14.476562 123.976562 -19.851562 123.78125 -27.75 L 123.328125 -27.75 C 117.128906 -16.550781 109.953125 -8.625 101.796875 -3.96875 C 93.648438 0.675781 83.523438 3 71.421875 3 C 53.617188 3 40.585938 -1.425781 32.328125 -10.28125 C 24.078125 -19.132812 19.953125 -33.765625 19.953125 -54.171875 L 19.953125 -162.34375 Z M 47.109375 -162.34375 "/></g></g></g><g fill="#353535" fill-opacity="1"><g transform="translate(898.600299, 496.907131)"><g><path d="M 157.984375 -81.921875 C 157.984375 -25.304688 138.082031 3 98.28125 3 C 73.269531 3 56.460938 -6.398438 47.859375 -25.203125 L 47.109375 -25.203125 C 47.515625 -24.398438 47.71875 -15.898438 47.71875 0.296875 L 47.71875 63.765625 L 20.703125 63.765625 L 20.703125 -129.1875 C 20.703125 -145.882812 20.40625 -156.9375 19.8125 -162.34375 L 45.90625 -162.34375 C 46.007812 -161.945312 46.160156 -160.519531 46.359375 -158.0625 C 46.554688 -155.613281 46.78125 -151.835938 47.03125 -146.734375 C 47.28125 -141.640625 47.40625 -138.140625 47.40625 -136.234375 L 48.015625 -136.234375 C 52.816406 -146.234375 59.164062 -153.554688 67.0625 -158.203125 C 74.96875 -162.859375 85.375 -165.1875 98.28125 -165.1875 C 118.28125 -165.1875 133.226562 -158.484375 143.125 -145.078125 C 153.03125 -131.679688 157.984375 -110.628906 157.984375 -81.921875 Z M 129.640625 -81.328125 C 129.640625 -103.929688 126.585938 -120.082031 120.484375 -129.78125 C 114.378906 -139.488281 104.675781 -144.34375 91.375 -144.34375 C 80.664062 -144.34375 72.285156 -142.085938 66.234375 -137.578125 C 60.191406 -133.078125 55.59375 -126.050781 52.4375 -116.5 C 49.289062 -106.945312 47.71875 -94.519531 47.71875 -79.21875 C 47.71875 -57.914062 51.117188 -42.210938 57.921875 -32.109375 C 64.722656 -22.003906 75.773438 -16.953125 91.078125 -16.953125 C 104.472656 -16.953125 114.25 -21.878906 120.40625 -31.734375 C 126.5625 -41.585938 129.640625 -58.117188 129.640625 -81.328125 Z M 129.640625 -81.328125 "/></g></g></g><g fill="#353535" fill-opacity="1"><g transform="translate(1059.051611, 496.907131)"><g><path d="M 142.53125 -44.859375 C 142.53125 -29.554688 136.753906 -17.753906 125.203125 -9.453125 C 113.648438 -1.148438 97.472656 3 76.671875 3 C 56.460938 3 40.878906 -0.320312 29.921875 -6.96875 C 18.972656 -13.625 11.847656 -24.003906 8.546875 -38.109375 L 32.40625 -42.765625 C 34.707031 -34.054688 39.457031 -27.675781 46.65625 -23.625 C 53.863281 -19.570312 63.867188 -17.546875 76.671875 -17.546875 C 90.367188 -17.546875 100.394531 -19.644531 106.75 -23.84375 C 113.101562 -28.050781 116.28125 -34.359375 116.28125 -42.765625 C 116.28125 -49.160156 114.078125 -54.359375 109.671875 -58.359375 C 105.273438 -62.359375 98.175781 -65.660156 88.375 -68.265625 L 69.015625 -73.375 C 53.515625 -77.375 42.488281 -81.296875 35.9375 -85.140625 C 29.382812 -88.992188 24.253906 -93.671875 20.546875 -99.171875 C 16.847656 -104.671875 15 -111.425781 15 -119.4375 C 15 -134.238281 20.273438 -145.515625 30.828125 -153.265625 C 41.378906 -161.015625 56.757812 -164.890625 76.96875 -164.890625 C 94.875 -164.890625 109.101562 -161.738281 119.65625 -155.4375 C 130.207031 -149.132812 136.882812 -139.035156 139.6875 -125.140625 L 115.375 -122.125 C 113.875 -129.332031 109.847656 -134.859375 103.296875 -138.703125 C 96.742188 -142.554688 87.96875 -144.484375 76.96875 -144.484375 C 64.769531 -144.484375 55.769531 -142.632812 49.96875 -138.9375 C 44.164062 -135.238281 41.265625 -129.632812 41.265625 -122.125 C 41.265625 -117.53125 42.460938 -113.734375 44.859375 -110.734375 C 47.265625 -107.734375 50.816406 -105.179688 55.515625 -103.078125 C 60.210938 -100.972656 70.113281 -98.070312 85.21875 -94.375 C 99.519531 -90.769531 109.820312 -87.441406 116.125 -84.390625 C 122.425781 -81.347656 127.398438 -77.972656 131.046875 -74.265625 C 134.703125 -70.566406 137.53125 -66.289062 139.53125 -61.4375 C 141.53125 -56.59375 142.53125 -51.066406 142.53125 -44.859375 Z M 142.53125 -44.859375 "/></g></g></g></svg>